G75*
%MOIN*%
%OFA0B0*%
%FSLAX24Y24*%
%IPPOS*%
%LPD*%
%AMOC8*
5,1,8,0,0,1.08239X$1,22.5*
%
%ADD10R,0.0580X0.0100*%
%ADD11R,0.1700X0.3250*%
%ADD12C,0.0060*%
%ADD13R,0.0866X0.0236*%
%ADD14R,0.0591X0.0157*%
%ADD15R,0.0315X0.0472*%
%ADD16R,0.0472X0.0315*%
%ADD17R,0.0100X0.0580*%
%ADD18R,0.3250X0.1700*%
%ADD19R,0.0236X0.0866*%
%ADD20R,0.0157X0.0591*%
%ADD21R,0.0580X0.0090*%
%ADD22R,0.0090X0.0580*%
%ADD23R,0.0394X0.0138*%
%ADD24R,0.1181X0.1969*%
D10*
X022090Y009500D03*
X022090Y009740D03*
X022090Y010000D03*
X022090Y010240D03*
X022090Y010500D03*
X022090Y010740D03*
X022090Y011000D03*
X022090Y011240D03*
X022090Y011500D03*
X022090Y011740D03*
X022090Y012000D03*
X022090Y012240D03*
X022090Y012500D03*
X022090Y012740D03*
X022090Y013000D03*
X022090Y013240D03*
X022090Y013500D03*
X022090Y013740D03*
X022090Y014000D03*
X022090Y014240D03*
X022090Y014500D03*
X022090Y014740D03*
X025070Y014740D03*
X025070Y014500D03*
X025070Y014240D03*
X025070Y014000D03*
X025070Y013740D03*
X025070Y013500D03*
X025070Y013240D03*
X025070Y013000D03*
X025070Y012740D03*
X025070Y012500D03*
X025070Y012240D03*
X025070Y012000D03*
X025070Y011740D03*
X025070Y011500D03*
X025070Y011240D03*
X025070Y011000D03*
X025070Y010740D03*
X025070Y010500D03*
X025070Y010240D03*
X025070Y010000D03*
X025070Y009740D03*
X025070Y009500D03*
X025030Y024460D03*
X025030Y024700D03*
X025030Y024960D03*
X025030Y025200D03*
X025030Y025460D03*
X025030Y025700D03*
X025030Y025960D03*
X025030Y026200D03*
X025030Y026460D03*
X025030Y026700D03*
X025030Y026960D03*
X025030Y027200D03*
X025030Y027460D03*
X025030Y027700D03*
X025030Y027960D03*
X025030Y028200D03*
X025030Y028460D03*
X025030Y028700D03*
X025030Y028960D03*
X025030Y029200D03*
X025030Y029460D03*
X025030Y029700D03*
X022050Y029700D03*
X022050Y029460D03*
X022050Y029200D03*
X022050Y028960D03*
X022050Y028700D03*
X022050Y028460D03*
X022050Y028200D03*
X022050Y027960D03*
X022050Y027700D03*
X022050Y027460D03*
X022050Y027200D03*
X022050Y026960D03*
X022050Y026700D03*
X022050Y026460D03*
X022050Y026200D03*
X022050Y025960D03*
X022050Y025700D03*
X022050Y025460D03*
X022050Y025200D03*
X022050Y024960D03*
X022050Y024700D03*
X022050Y024460D03*
D11*
X023540Y027080D03*
X023580Y012120D03*
D12*
X022860Y012000D02*
X022760Y012000D01*
X022760Y012240D01*
X022760Y012310D02*
X022860Y012310D01*
X022760Y012310D02*
X022760Y012550D01*
X022760Y012620D02*
X022860Y012620D01*
X022760Y012620D02*
X022760Y012860D01*
X022760Y012930D02*
X022860Y012930D01*
X022760Y012930D02*
X022760Y013170D01*
X022760Y013240D02*
X022860Y013240D01*
X022760Y013240D02*
X022760Y013480D01*
X022760Y013550D02*
X022860Y013550D01*
X022760Y013550D02*
X022760Y013720D01*
X022920Y013720D01*
X023000Y013720D02*
X023230Y013720D01*
X023310Y013720D02*
X023540Y013720D01*
X023620Y013720D02*
X023850Y013720D01*
X023930Y013720D02*
X024160Y013720D01*
X024240Y013720D02*
X024400Y013720D01*
X024400Y013550D01*
X024400Y013480D02*
X024300Y013480D01*
X024400Y013480D02*
X024400Y013240D01*
X024400Y013170D02*
X024300Y013170D01*
X024400Y013170D02*
X024400Y012930D01*
X024400Y012860D02*
X024300Y012860D01*
X024400Y012860D02*
X024400Y012620D01*
X024400Y012550D02*
X024300Y012550D01*
X024400Y012550D02*
X024400Y012310D01*
X024400Y012240D02*
X024300Y012240D01*
X024400Y012240D02*
X024400Y012000D01*
X024400Y011930D02*
X024300Y011930D01*
X024400Y011930D02*
X024400Y011690D01*
X024400Y011620D02*
X024300Y011620D01*
X024400Y011620D02*
X024400Y011380D01*
X024400Y011310D02*
X024300Y011310D01*
X024400Y011310D02*
X024400Y011070D01*
X024400Y011000D02*
X024300Y011000D01*
X024400Y011000D02*
X024400Y010760D01*
X024400Y010690D02*
X024300Y010690D01*
X024400Y010690D02*
X024400Y010520D01*
X024240Y010520D01*
X024160Y010520D02*
X024160Y010630D01*
X024160Y010520D02*
X023930Y010520D01*
X023850Y010520D02*
X023850Y010630D01*
X023850Y010520D02*
X023620Y010520D01*
X023540Y010520D02*
X023540Y010630D01*
X023540Y010520D02*
X023310Y010520D01*
X023230Y010520D02*
X023230Y010630D01*
X023230Y010520D02*
X023000Y010520D01*
X022920Y010520D02*
X022920Y010630D01*
X022920Y010520D02*
X022760Y010520D01*
X022760Y010690D01*
X022760Y010760D02*
X022860Y010760D01*
X022760Y010760D02*
X022760Y011000D01*
X022760Y011070D02*
X022860Y011070D01*
X022760Y011070D02*
X022760Y011310D01*
X022760Y011380D02*
X022860Y011380D01*
X022760Y011380D02*
X022760Y011620D01*
X022760Y011690D02*
X022860Y011690D01*
X022760Y011690D02*
X022760Y011930D01*
X023000Y013610D02*
X023000Y013720D01*
X023310Y013720D02*
X023310Y013610D01*
X023620Y013610D02*
X023620Y013720D01*
X023930Y013720D02*
X023930Y013610D01*
X024240Y013610D02*
X024240Y013720D01*
X024200Y025480D02*
X024360Y025480D01*
X024360Y025650D01*
X024260Y025650D01*
X024360Y025720D02*
X024360Y025960D01*
X024260Y025960D01*
X024360Y026030D02*
X024360Y026270D01*
X024260Y026270D01*
X024360Y026340D02*
X024360Y026580D01*
X024260Y026580D01*
X024360Y026650D02*
X024360Y026890D01*
X024260Y026890D01*
X024360Y026960D02*
X024360Y027200D01*
X024260Y027200D01*
X024360Y027270D02*
X024360Y027510D01*
X024260Y027510D01*
X024360Y027580D02*
X024360Y027820D01*
X024260Y027820D01*
X024360Y027890D02*
X024360Y028130D01*
X024260Y028130D01*
X024360Y028200D02*
X024360Y028440D01*
X024260Y028440D01*
X024360Y028510D02*
X024360Y028680D01*
X024200Y028680D01*
X024200Y028570D01*
X024120Y028680D02*
X023890Y028680D01*
X023890Y028570D01*
X023810Y028680D02*
X023580Y028680D01*
X023580Y028570D01*
X023500Y028680D02*
X023270Y028680D01*
X023270Y028570D01*
X023190Y028680D02*
X022960Y028680D01*
X022960Y028570D01*
X022880Y028680D02*
X022720Y028680D01*
X022720Y028510D01*
X022820Y028510D01*
X022720Y028440D02*
X022720Y028200D01*
X022820Y028200D01*
X022720Y028130D02*
X022720Y027890D01*
X022820Y027890D01*
X022720Y027820D02*
X022720Y027580D01*
X022820Y027580D01*
X022720Y027510D02*
X022720Y027270D01*
X022820Y027270D01*
X022720Y027200D02*
X022720Y026960D01*
X022820Y026960D01*
X022720Y026890D02*
X022720Y026650D01*
X022820Y026650D01*
X022720Y026580D02*
X022720Y026340D01*
X022820Y026340D01*
X022720Y026270D02*
X022720Y026030D01*
X022820Y026030D01*
X022720Y025960D02*
X022720Y025720D01*
X022820Y025720D01*
X022720Y025650D02*
X022720Y025480D01*
X022880Y025480D01*
X022880Y025590D01*
X022960Y025480D02*
X023190Y025480D01*
X023190Y025590D01*
X023270Y025480D02*
X023500Y025480D01*
X023500Y025590D01*
X023580Y025480D02*
X023810Y025480D01*
X023810Y025590D01*
X023890Y025480D02*
X024120Y025480D01*
X024120Y025590D01*
X007180Y023350D02*
X007180Y023190D01*
X007180Y023110D02*
X007070Y023110D01*
X007180Y023110D02*
X007180Y022880D01*
X007180Y022800D02*
X007070Y022800D01*
X007180Y022800D02*
X007180Y022570D01*
X007180Y022490D02*
X007070Y022490D01*
X007180Y022490D02*
X007180Y022260D01*
X007180Y022180D02*
X007070Y022180D01*
X007180Y022180D02*
X007180Y021950D01*
X007180Y021870D02*
X007070Y021870D01*
X007180Y021870D02*
X007180Y021710D01*
X007010Y021710D01*
X006940Y021710D02*
X006940Y021810D01*
X006940Y021710D02*
X006700Y021710D01*
X006630Y021710D02*
X006630Y021810D01*
X006630Y021710D02*
X006390Y021710D01*
X006320Y021710D02*
X006320Y021810D01*
X006320Y021710D02*
X006080Y021710D01*
X006010Y021710D02*
X006010Y021810D01*
X006010Y021710D02*
X005770Y021710D01*
X005700Y021710D02*
X005700Y021810D01*
X005700Y021710D02*
X005460Y021710D01*
X005390Y021710D02*
X005390Y021810D01*
X005390Y021710D02*
X005150Y021710D01*
X005080Y021710D02*
X005080Y021810D01*
X005080Y021710D02*
X004840Y021710D01*
X004770Y021710D02*
X004770Y021810D01*
X004770Y021710D02*
X004530Y021710D01*
X004460Y021710D02*
X004460Y021810D01*
X004460Y021710D02*
X004220Y021710D01*
X004150Y021710D02*
X004150Y021810D01*
X004150Y021710D02*
X003980Y021710D01*
X003980Y021870D01*
X003980Y021950D02*
X003980Y022180D01*
X003980Y022260D02*
X003980Y022490D01*
X003980Y022570D02*
X003980Y022800D01*
X003980Y022880D02*
X003980Y023110D01*
X003980Y023190D02*
X003980Y023350D01*
X004150Y023350D01*
X004220Y023350D02*
X004220Y023250D01*
X004220Y023350D02*
X004460Y023350D01*
X004530Y023350D02*
X004530Y023250D01*
X004530Y023350D02*
X004770Y023350D01*
X004840Y023350D02*
X004840Y023250D01*
X004840Y023350D02*
X005080Y023350D01*
X005150Y023350D02*
X005150Y023250D01*
X005150Y023350D02*
X005390Y023350D01*
X005460Y023350D02*
X005460Y023250D01*
X005460Y023350D02*
X005700Y023350D01*
X005770Y023350D02*
X005770Y023250D01*
X005770Y023350D02*
X006010Y023350D01*
X006080Y023350D02*
X006080Y023250D01*
X006080Y023350D02*
X006320Y023350D01*
X006390Y023350D02*
X006390Y023250D01*
X006390Y023350D02*
X006630Y023350D01*
X006700Y023350D02*
X006700Y023250D01*
X006700Y023350D02*
X006940Y023350D01*
X007010Y023350D02*
X007010Y023250D01*
X007010Y023350D02*
X007180Y023350D01*
X004090Y023190D02*
X003980Y023190D01*
X003980Y022880D02*
X004090Y022880D01*
X004090Y022570D02*
X003980Y022570D01*
X003980Y022260D02*
X004090Y022260D01*
X004090Y021950D02*
X003980Y021950D01*
D13*
X027516Y022930D03*
X027516Y023430D03*
X027516Y023930D03*
X027516Y024430D03*
X029564Y024430D03*
X029564Y023930D03*
X029564Y023430D03*
X029564Y022930D03*
X029604Y009470D03*
X029604Y008970D03*
X029604Y008470D03*
X029604Y007970D03*
X027556Y007970D03*
X027556Y008470D03*
X027556Y008970D03*
X027556Y009470D03*
D14*
X025107Y007283D03*
X025107Y007027D03*
X025107Y006772D03*
X025107Y006516D03*
X025107Y006260D03*
X025107Y006004D03*
X025107Y005748D03*
X025107Y005492D03*
X025107Y005236D03*
X025107Y004980D03*
X025107Y004724D03*
X025107Y004468D03*
X025107Y004213D03*
X025107Y003957D03*
X022253Y003957D03*
X022253Y004213D03*
X022253Y004468D03*
X022253Y004724D03*
X022253Y004980D03*
X022253Y005236D03*
X022253Y005492D03*
X022253Y005748D03*
X022253Y006004D03*
X022253Y006260D03*
X022253Y006516D03*
X022253Y006772D03*
X022253Y007027D03*
X022253Y007283D03*
X022213Y018917D03*
X022213Y019173D03*
X022213Y019428D03*
X022213Y019684D03*
X022213Y019940D03*
X022213Y020196D03*
X022213Y020452D03*
X022213Y020708D03*
X022213Y020964D03*
X022213Y021220D03*
X022213Y021476D03*
X022213Y021732D03*
X022213Y021987D03*
X022213Y022243D03*
X025067Y022243D03*
X025067Y021987D03*
X025067Y021732D03*
X025067Y021476D03*
X025067Y021220D03*
X025067Y020964D03*
X025067Y020708D03*
X025067Y020452D03*
X025067Y020196D03*
X025067Y019940D03*
X025067Y019684D03*
X025067Y019428D03*
X025067Y019173D03*
X025067Y018917D03*
D15*
X024986Y017980D03*
X025694Y017980D03*
X026386Y018280D03*
X027094Y018280D03*
X027094Y018980D03*
X026386Y018980D03*
X026394Y022080D03*
X025686Y022080D03*
X025094Y023580D03*
X024386Y023580D03*
X022814Y023520D03*
X022106Y023520D03*
X021194Y021380D03*
X020486Y021380D03*
X020786Y018780D03*
X021494Y018780D03*
X025676Y015900D03*
X026384Y015900D03*
X026956Y015660D03*
X026634Y015120D03*
X025926Y015120D03*
X027664Y015660D03*
X027626Y012920D03*
X027926Y012120D03*
X028634Y012120D03*
X029126Y011520D03*
X029834Y011520D03*
X028334Y012920D03*
X026434Y013020D03*
X025726Y013020D03*
X027526Y010920D03*
X028234Y010920D03*
X028334Y010120D03*
X027626Y010120D03*
X025134Y008620D03*
X024426Y008620D03*
X022854Y008560D03*
X022146Y008560D03*
X020924Y006410D03*
X020216Y006410D03*
X020826Y003820D03*
X021534Y003820D03*
X025026Y003020D03*
X025734Y003020D03*
X026426Y003320D03*
X026426Y004020D03*
X027134Y004020D03*
X027134Y003320D03*
X026434Y007120D03*
X025726Y007120D03*
X019034Y010620D03*
X019034Y011220D03*
X018326Y011220D03*
X018034Y011220D03*
X018034Y010620D03*
X018326Y010620D03*
X017326Y010620D03*
X017326Y011220D03*
X015344Y008220D03*
X014636Y008220D03*
G36*
X012759Y004352D02*
X012537Y004574D01*
X012869Y004906D01*
X013091Y004684D01*
X012759Y004352D01*
G37*
G36*
X013260Y003851D02*
X013038Y004073D01*
X013370Y004405D01*
X013592Y004183D01*
X013260Y003851D01*
G37*
G36*
X009591Y004459D02*
X009831Y004661D01*
X010133Y004301D01*
X009893Y004099D01*
X009591Y004459D01*
G37*
G36*
X009049Y004003D02*
X009289Y004205D01*
X009591Y003845D01*
X009351Y003643D01*
X009049Y004003D01*
G37*
X008134Y004520D03*
X007426Y004520D03*
X005844Y004070D03*
X005136Y004070D03*
G36*
X006931Y007512D02*
X007153Y007734D01*
X007485Y007402D01*
X007263Y007180D01*
X006931Y007512D01*
G37*
G36*
X007432Y008013D02*
X007654Y008235D01*
X007986Y007903D01*
X007764Y007681D01*
X007432Y008013D01*
G37*
X006154Y010420D03*
X005446Y010420D03*
X004434Y010080D03*
X004454Y009410D03*
X003746Y009410D03*
X003726Y010080D03*
X004226Y008520D03*
X004934Y008520D03*
X009696Y011890D03*
X010404Y011890D03*
X004934Y014890D03*
X004226Y014890D03*
X005426Y019530D03*
X005734Y020130D03*
X006134Y019530D03*
X005026Y020130D03*
X003334Y020030D03*
X002626Y020030D03*
X003326Y025230D03*
X004034Y025230D03*
X003144Y026450D03*
X002436Y026450D03*
X002004Y026450D03*
X001296Y026450D03*
X005626Y025430D03*
X006334Y025430D03*
X007226Y025530D03*
X007934Y025530D03*
X012326Y027930D03*
X012326Y028520D03*
X013034Y028520D03*
X013034Y027930D03*
X012926Y026790D03*
X013634Y026790D03*
X014326Y026930D03*
X015034Y026930D03*
X015034Y027730D03*
X014326Y027730D03*
X014326Y028530D03*
X015034Y028530D03*
X013334Y030030D03*
X012626Y030030D03*
X012034Y030030D03*
X011326Y030030D03*
X010834Y030030D03*
X010126Y030030D03*
X017286Y026180D03*
X017286Y025580D03*
X017994Y025580D03*
X018286Y025580D03*
X018286Y026180D03*
X017994Y026180D03*
X018994Y026180D03*
X018994Y025580D03*
X025686Y027980D03*
X026394Y027980D03*
X027586Y027880D03*
X028294Y027880D03*
X028594Y027080D03*
X027886Y027080D03*
X028194Y025880D03*
X027486Y025880D03*
X027586Y025080D03*
X028294Y025080D03*
X029086Y026480D03*
X029794Y026480D03*
X026594Y030080D03*
X025886Y030080D03*
D16*
X003050Y004416D03*
X003050Y005124D03*
X003040Y007846D03*
X003040Y008554D03*
X003050Y010786D03*
X003050Y011494D03*
X003040Y014216D03*
X003040Y014924D03*
X002430Y014926D03*
X002430Y015634D03*
X006480Y016276D03*
X007080Y016276D03*
X007080Y016984D03*
X007080Y017276D03*
X006480Y017276D03*
X006480Y016984D03*
X006480Y017984D03*
X007080Y017984D03*
X009140Y021096D03*
X009140Y021804D03*
X009080Y023376D03*
X009080Y024084D03*
X010580Y024676D03*
X010580Y025384D03*
X013680Y025376D03*
X014380Y025376D03*
X014380Y026084D03*
X013680Y026084D03*
X014680Y024684D03*
X014680Y023976D03*
X013880Y020484D03*
X013880Y019776D03*
X011280Y019476D03*
X011280Y020184D03*
X006780Y026476D03*
X007580Y026576D03*
X007580Y027284D03*
X006780Y027184D03*
X006180Y028076D03*
X005580Y027584D03*
X005580Y026876D03*
X004780Y026576D03*
X004780Y027284D03*
X006180Y028784D03*
X004680Y025384D03*
X004680Y024676D03*
X002780Y024646D03*
X002780Y025354D03*
X012000Y012534D03*
X012000Y011826D03*
X014520Y011284D03*
X014520Y010576D03*
X020580Y011566D03*
X021180Y011966D03*
X020580Y012274D03*
X021180Y012674D03*
X021080Y014366D03*
X021080Y015074D03*
X026280Y014374D03*
X026280Y013666D03*
X026480Y012074D03*
X026480Y011366D03*
X026580Y010474D03*
X026580Y009766D03*
X028980Y005374D03*
X029570Y005374D03*
X029570Y004666D03*
X028980Y004666D03*
X027840Y004774D03*
X027840Y004066D03*
X027980Y003374D03*
X027980Y002666D03*
X028780Y002666D03*
X028780Y003374D03*
X029580Y003374D03*
X029580Y002666D03*
X031080Y004366D03*
X031080Y005074D03*
X031080Y005666D03*
X031080Y006374D03*
X031080Y006866D03*
X031080Y007574D03*
X029540Y017626D03*
X028740Y017626D03*
X028740Y018334D03*
X029540Y018334D03*
X029530Y019626D03*
X028940Y019626D03*
X028940Y020334D03*
X029530Y020334D03*
X031040Y020626D03*
X031040Y020034D03*
X031040Y019326D03*
X031040Y021334D03*
X031040Y021826D03*
X031040Y022534D03*
X027800Y019734D03*
X027800Y019026D03*
X027940Y018334D03*
X027940Y017626D03*
X026540Y024726D03*
X026540Y025434D03*
X026440Y026326D03*
X026440Y027034D03*
X026240Y028626D03*
X026240Y029334D03*
X027490Y029326D03*
X027490Y030034D03*
X027650Y030566D03*
X027650Y031274D03*
X021040Y030034D03*
X021040Y029326D03*
X021140Y027634D03*
X021140Y026926D03*
X020540Y027234D03*
X020540Y026526D03*
X006180Y009304D03*
X006180Y008596D03*
X011050Y004554D03*
X011050Y003846D03*
D17*
X008200Y021040D03*
X007960Y021040D03*
X007700Y021040D03*
X007460Y021040D03*
X007200Y021040D03*
X006960Y021040D03*
X006700Y021040D03*
X006460Y021040D03*
X006200Y021040D03*
X005960Y021040D03*
X005700Y021040D03*
X005460Y021040D03*
X005200Y021040D03*
X004960Y021040D03*
X004700Y021040D03*
X004460Y021040D03*
X004200Y021040D03*
X003960Y021040D03*
X003700Y021040D03*
X003460Y021040D03*
X003200Y021040D03*
X002960Y021040D03*
X002960Y024020D03*
X003200Y024020D03*
X003460Y024020D03*
X003700Y024020D03*
X003960Y024020D03*
X004200Y024020D03*
X004460Y024020D03*
X004700Y024020D03*
X004960Y024020D03*
X005200Y024020D03*
X005460Y024020D03*
X005700Y024020D03*
X005960Y024020D03*
X006200Y024020D03*
X006460Y024020D03*
X006700Y024020D03*
X006960Y024020D03*
X007200Y024020D03*
X007460Y024020D03*
X007700Y024020D03*
X007960Y024020D03*
X008200Y024020D03*
D18*
X005580Y022530D03*
D19*
X008230Y026506D03*
X008730Y026506D03*
X009230Y026506D03*
X009730Y026506D03*
X009730Y028554D03*
X009230Y028554D03*
X008730Y028554D03*
X008230Y028554D03*
D20*
X010417Y024057D03*
X010673Y024057D03*
X010928Y024057D03*
X011184Y024057D03*
X011440Y024057D03*
X011696Y024057D03*
X011952Y024057D03*
X012208Y024057D03*
X012464Y024057D03*
X012720Y024057D03*
X012976Y024057D03*
X013232Y024057D03*
X013487Y024057D03*
X013743Y024057D03*
X013743Y021203D03*
X013487Y021203D03*
X013232Y021203D03*
X012976Y021203D03*
X012720Y021203D03*
X012464Y021203D03*
X012208Y021203D03*
X011952Y021203D03*
X011696Y021203D03*
X011440Y021203D03*
X011184Y021203D03*
X010928Y021203D03*
X010673Y021203D03*
X010417Y021203D03*
D21*
X008575Y010280D03*
X008575Y010122D03*
X008575Y009965D03*
X008575Y009807D03*
X008575Y009650D03*
X008575Y009492D03*
X008575Y009335D03*
X008575Y009177D03*
X008575Y009020D03*
X008575Y008862D03*
X008575Y008705D03*
X008575Y008547D03*
X008575Y008390D03*
X008575Y008233D03*
X008575Y008075D03*
X008575Y007918D03*
X008575Y007760D03*
X008575Y007603D03*
X008575Y007445D03*
X008575Y007288D03*
X008575Y007130D03*
X008575Y006973D03*
X008575Y006815D03*
X008575Y006658D03*
X008575Y006500D03*
X013785Y006500D03*
X013785Y006658D03*
X013785Y006815D03*
X013785Y006973D03*
X013785Y007130D03*
X013785Y007288D03*
X013785Y007445D03*
X013785Y007603D03*
X013785Y007760D03*
X013785Y007918D03*
X013785Y008075D03*
X013785Y008233D03*
X013785Y008390D03*
X013785Y008547D03*
X013785Y008705D03*
X013785Y008862D03*
X013785Y009020D03*
X013785Y009177D03*
X013785Y009335D03*
X013785Y009492D03*
X013785Y009650D03*
X013785Y009807D03*
X013785Y009965D03*
X013785Y010122D03*
X013785Y010280D03*
D22*
X013070Y010995D03*
X012912Y010995D03*
X012755Y010995D03*
X012597Y010995D03*
X012440Y010995D03*
X012282Y010995D03*
X012125Y010995D03*
X011967Y010995D03*
X011810Y010995D03*
X011652Y010995D03*
X011495Y010995D03*
X011337Y010995D03*
X011180Y010995D03*
X011023Y010995D03*
X010865Y010995D03*
X010708Y010995D03*
X010550Y010995D03*
X010393Y010995D03*
X010235Y010995D03*
X010078Y010995D03*
X009920Y010995D03*
X009763Y010995D03*
X009605Y010995D03*
X009448Y010995D03*
X009290Y010995D03*
X009290Y005785D03*
X009448Y005785D03*
X009605Y005785D03*
X009763Y005785D03*
X009920Y005785D03*
X010078Y005785D03*
X010235Y005785D03*
X010393Y005785D03*
X010550Y005785D03*
X010708Y005785D03*
X010865Y005785D03*
X011023Y005785D03*
X011180Y005785D03*
X011337Y005785D03*
X011495Y005785D03*
X011652Y005785D03*
X011810Y005785D03*
X011967Y005785D03*
X012125Y005785D03*
X012282Y005785D03*
X012440Y005785D03*
X012597Y005785D03*
X012755Y005785D03*
X012912Y005785D03*
X013070Y005785D03*
D23*
X006176Y005670D03*
X006176Y005414D03*
X006176Y005158D03*
X006176Y004903D03*
X006176Y004647D03*
X006176Y005926D03*
X006176Y006182D03*
X006176Y006438D03*
X006176Y006694D03*
X006176Y006950D03*
X006176Y007206D03*
X006176Y007462D03*
X006176Y007717D03*
X006176Y007973D03*
X003744Y007973D03*
X003744Y007717D03*
X003744Y007462D03*
X003744Y007206D03*
X003744Y006950D03*
X003744Y006694D03*
X003744Y006438D03*
X003744Y006182D03*
X003744Y005926D03*
X003744Y005670D03*
X003744Y005414D03*
X003744Y005158D03*
X003744Y004903D03*
X003744Y004647D03*
X003744Y011017D03*
X003744Y011273D03*
X003744Y011528D03*
X003744Y011784D03*
X003744Y012040D03*
X003744Y012296D03*
X003744Y012552D03*
X003744Y012808D03*
X003744Y013064D03*
X003744Y013320D03*
X003744Y013576D03*
X003744Y013832D03*
X003744Y014087D03*
X003744Y014343D03*
X006176Y014343D03*
X006176Y014087D03*
X006176Y013832D03*
X006176Y013576D03*
X006176Y013320D03*
X006176Y013064D03*
X006176Y012808D03*
X006176Y012552D03*
X006176Y012296D03*
X006176Y012040D03*
X006176Y011784D03*
X006176Y011528D03*
X006176Y011273D03*
X006176Y011017D03*
D24*
X004960Y012680D03*
X004960Y006310D03*
M02*
