%
M48
M72
T01C0.0120
T02C0.0236
T03C0.0276
T04C0.0320
T05C0.0354
T06C0.0360
T07C0.0400
T08C0.1250
%
T01
X1030Y3310
X1400Y3600
X1760Y3630
X1960Y3300
X2200Y3600
X2620Y3430
X2380Y4330
X2490Y4550
X2470Y4790
X2640Y4960
X4560Y5510
X4960Y5510
X5360Y5510
X5360Y5910
X5360Y6310
X5360Y6710
X5360Y7110
X4960Y7110
X4960Y6710
X4960Y6310
X4960Y5910
X4560Y5910
X4560Y6310
X4560Y6710
X4560Y7110
X2610Y7490
X2450Y7700
X2580Y7950
X2570Y8210
X2310Y8210
X2320Y7960
X2380Y10700
X2490Y10920
X2470Y11160
X2640Y11330
X4560Y11880
X4560Y12280
X4560Y12680
X4960Y12680
X4960Y12280
X4960Y11880
X5360Y11880
X5360Y12280
X5360Y12680
X5360Y13080
X5360Y13480
X4960Y13480
X4960Y13080
X4560Y13080
X4560Y13480
X2610Y13860
X2450Y14070
X2580Y14320
X2570Y14580
X2310Y14580
X2320Y14330
X3310Y16820
X7420Y14480
X7740Y14420
X8100Y14530
X8470Y14520
X8390Y14160
X8890Y14080
X8840Y14530
X10950Y15690
X10660Y16390
X10990Y16590
X11340Y16380
X11850Y15750
X13130Y16130
X13160Y16800
X12740Y17770
X12440Y17610
X11520Y18670
X13700Y19380
X14180Y18910
X14720Y17830
X14600Y16900
X16900Y16200
X17110Y18100
X17740Y19420
X18870Y19870
X18840Y18760
X19250Y18290
X19670Y18810
X20100Y18800
X20470Y20270
X22850Y20320
X22850Y20810
X22860Y21390
X23980Y21140
X24240Y21550
X24250Y20700
X22840Y19680
X24220Y19190
X25560Y14150
X25580Y13880
X25830Y13970
X25830Y14220
X24180Y13520
X24180Y13120
X23780Y13120
X23780Y13520
X23380Y13520
X23380Y13120
X22980Y13120
X22980Y13520
X22980Y12720
X22980Y12320
X22980Y11920
X22980Y11520
X22980Y11120
X23380Y11120
X23380Y11520
X23380Y11920
X23380Y12320
X23380Y12720
X23780Y12720
X23780Y12320
X23780Y11920
X23780Y11520
X23780Y11120
X24180Y11120
X24180Y11520
X24180Y11920
X24180Y12320
X24180Y12720
X25700Y11770
X25950Y11780
X25980Y10320
X25780Y10120
X25580Y10320
X24180Y10720
X23780Y10720
X23380Y10720
X22980Y10720
X24240Y6620
X24200Y6180
X24200Y5690
X22970Y5280
X22930Y4720
X22900Y5900
X22910Y6500
X24310Y4330
X27390Y6910
X27690Y6910
X20530Y5330
X19590Y6150
X19590Y6520
X18640Y6290
X18610Y6680
X17580Y6480
X18390Y5440
X20240Y3670
X17120Y2530
X17140Y2250
X17120Y1940
X16810Y1940
X16520Y1940
X16520Y2230
X16810Y2240
X16810Y2530
X16520Y2530
X14400Y3380
X13770Y3690
X12630Y4930
X12430Y4740
X11150Y5000
X10930Y4850
X10010Y4930
X10000Y4660
X8880Y5610
X8470Y5240
X7490Y4950
X7520Y3300
X7130Y2910
X9210Y3370
X9710Y3510
X11050Y3450
X11040Y3160
X9710Y6640
X11110Y7960
X11180Y7120
X12550Y6740
X12530Y8280
X12650Y9340
X12050Y9870
X11170Y9210
X10330Y9830
X9900Y9290
X10000Y8230
X8060Y8150
X7000Y7140
X7590Y10320
X7550Y10700
X7590Y11150
X7570Y11550
X10390Y11470
X12010Y11490
X13570Y12320
X13950Y11980
X14430Y11840
X14910Y11870
X14600Y12480
X14020Y12580
X14470Y13550
X13130Y13980
X11730Y14430
X11270Y14530
X14300Y10470
X14310Y10070
X15810Y8710
X15880Y8270
X16370Y8110
X16350Y8820
X17580Y8420
X17550Y8020
X16090Y6000
X15750Y6020
X15380Y6010
X15390Y5580
X15750Y5570
X16110Y5570
X14290Y8110
X14290Y8350
X16740Y13510
X16750Y13880
X16740Y14220
X16450Y19830
X16590Y20540
X13870Y23280
X13480Y23260
X12130Y23180
X11780Y23160
X11480Y23160
X11210Y23180
X11130Y21870
X11970Y21860
X12970Y21900
X17720Y24100
X17720Y24580
X17820Y27480
X18420Y27980
X22940Y28080
X22940Y27680
X22940Y27280
X22940Y26880
X22940Y26480
X23340Y26480
X23340Y26880
X23340Y27280
X23340Y27680
X23340Y28080
X23740Y28080
X23740Y27680
X23740Y27280
X23740Y26880
X23740Y26480
X24140Y26480
X24140Y26880
X24140Y27280
X24140Y27680
X24140Y28080
X24140Y28480
X23740Y28480
X23340Y28480
X22940Y28480
X25540Y28840
X25790Y28930
X25790Y29180
X25520Y29110
X25660Y26730
X25910Y26740
X25940Y25280
X25740Y25080
X25540Y25280
X24140Y25680
X24140Y26080
X23740Y26080
X23740Y25680
X23340Y25680
X23340Y26080
X22940Y26080
X22940Y25680
X31780Y18320
X32040Y18320
X32300Y18320
X32320Y17850
X32050Y17850
X31780Y17850
X7580Y24730
X7380Y24930
X7380Y24530
X5930Y24650
X5920Y24900
X5780Y23130
X5780Y22730
X5780Y22330
X5780Y21930
X6180Y21930
X6180Y22330
X6180Y22730
X6180Y23130
X6580Y23130
X6580Y22730
X6580Y22330
X6580Y21930
X6980Y21930
X6980Y22330
X6980Y22730
X6980Y23130
X5380Y23130
X5380Y22730
X5380Y22330
X5380Y21930
X4980Y21930
X4980Y22330
X4980Y22730
X4980Y23130
X4580Y23130
X4580Y22730
X4580Y22330
X4580Y21930
X4180Y21930
X4180Y22330
X4180Y22730
X4180Y23130
X3550Y24510
X3820Y24530
X3730Y24780
X3480Y24780
X1190Y27920
X1220Y28650
X1240Y29260
X1260Y29810
T02
X3400Y25940
X4680Y25930
X5580Y26330
X6780Y25930
X8380Y27730
X7280Y28730
X6680Y29230
X6780Y28030
X8980Y29230
X10380Y28330
X9780Y27730
X10780Y27030
X11480Y27330
X11380Y29030
X13280Y29030
X13280Y27430
X14980Y25330
X15680Y26430
X15680Y27830
X15580Y29030
X15530Y31150
X16340Y31690
X14520Y31670
X19540Y27980
X20240Y28380
X21040Y28680
X21540Y30080
X23540Y29180
X26940Y27980
X27340Y27080
X26940Y25880
X28740Y24280
X29740Y25380
X30240Y25980
X29040Y25880
X30240Y23680
X29340Y22280
X28740Y22880
X28040Y21880
X28340Y21180
X30040Y21280
X30040Y19380
X28440Y19380
X26440Y19680
X26340Y17680
X27440Y16980
X28840Y16980
X30040Y17080
X26980Y13020
X27380Y12120
X26980Y10920
X28780Y9320
X29780Y10420
X30280Y11020
X29080Y10920
X30280Y8720
X30410Y7630
X30410Y6370
X28780Y7920
X28080Y6920
X28380Y6220
X28480Y4420
X30420Y4340
X30460Y2390
X28880Y2020
X27480Y2020
X26380Y2720
X26480Y4720
X24180Y5120
X23310Y3490
X23280Y2920
X20980Y5020
X20280Y4720
X19480Y4920
X20080Y5620
X20980Y5920
X21580Y5820
X22880Y7220
X23480Y7320
X24180Y7220
X23680Y8720
X23580Y9920
X25080Y9120
X26680Y8220
X21580Y9120
X21080Y10720
X20480Y10920
X19680Y11220
X19380Y11920
X19580Y13020
X20280Y13420
X21080Y13720
X21580Y15120
X23580Y14220
X25080Y15120
X23240Y17880
X23210Y18490
X24140Y20080
X24140Y22180
X23440Y22280
X22840Y22180
X21540Y20780
X20940Y20880
X20940Y19980
X20240Y19680
X20040Y20580
X19440Y19880
X21540Y24080
X21040Y25680
X20440Y25880
X19640Y26180
X19340Y26880
X18540Y24880
X14780Y22230
X14190Y22200
X12580Y23130
X12860Y24970
X10480Y23130
X10380Y22430
X10480Y21830
X11880Y20530
X11780Y19930
X12080Y19030
X12780Y18430
X12980Y19230
X12680Y19930
X8980Y22630
X7780Y22530
X8580Y24030
X9480Y25630
X8580Y20530
X6980Y20030
X6780Y19430
X6480Y18630
X5780Y18330
X4680Y18530
X4280Y19230
X3980Y20030
X2580Y20530
X3480Y22530
X7780Y17530
X9710Y14360
X10190Y14260
X8770Y12740
X18580Y9920
X26640Y23180
X25040Y24080
X23640Y23680
X23540Y24880
T03
X19940Y30080
X18940Y30080
X29040Y29580
X31040Y29580
X19980Y15120
X18980Y15120
X29080Y14620
X31080Y14620
X3080Y28030
X3080Y30030
X2580Y18930
X2580Y17930
T04
X9080Y18530
X9080Y19930
X19540Y23580
X20940Y23580
X20980Y8620
X19580Y8620
T05
X27820Y14620
T06
X32280Y11820
X32280Y10820
X32280Y9820
X32280Y8820
X32280Y7820
X32280Y6820
X32280Y5820
X32280Y4820
X32240Y19780
X32240Y20780
X32240Y21780
X32240Y22780
X32240Y23780
X32240Y24780
X32240Y25780
X32240Y26780
X12880Y31230
X11880Y31230
X10880Y31230
X9880Y31230
X8880Y31230
X7880Y31230
X6880Y31230
X5880Y31230
T07
X1870Y25280
X1770Y24280
X1870Y23280
X1770Y22280
X1870Y21280
X1770Y20280
X1570Y14070
X1470Y13070
X1570Y12070
X1470Y11070
X1560Y9490
X2700Y9490
X1570Y7700
X1470Y6700
X1570Y5700
X1470Y4700
X1470Y2580
X2470Y2480
X3470Y2580
X4470Y2480
X5470Y2580
X6470Y2480
X7940Y2550
X7940Y1550
X8940Y1550
X8940Y2550
X9940Y2550
X9940Y1550
X10940Y1550
X10940Y2550
X11940Y2550
X11940Y1550
X12940Y1550
X12940Y2550
X13940Y2550
X13940Y1550
X14940Y1550
X14940Y2550
X19880Y2170
X20880Y2070
X21880Y2170
X22880Y2070
X23880Y2170
X24880Y2070
X24840Y17030
X23840Y17130
X22840Y17030
X21840Y17130
X20840Y17030
X19840Y17130
X15530Y18830
X15630Y19830
X15530Y20830
X15630Y21830
X15530Y22830
X15630Y23830
X21730Y30980
X22730Y30880
X23730Y30980
X24730Y30880
X25730Y30980
X26730Y30880
T08
X1340Y1260
X1390Y31540
X32460Y31510
X32410Y1690
M30
